<svg xmlns="http://www.w3.org/2000/svg" width="253" height="60" viewBox="0 0 253 60" fill="none"><path fill-rule="evenodd" clip-rule="evenodd" d="M81.9083 0.625977H85.1345V3.85229H81.9083V0.625977ZM82.6787 39.5343H85.279V40.7381H82.6787V39.5343ZM78.6819 37.4636H89.2758V38.6675H78.6819V37.4636ZM78.6819 35.4412H89.2758V36.645H78.6819V35.4412ZM78.6819 33.3706H89.2758V34.5744H78.6819V33.3706ZM68.5215 13.6275H72.2775V17.3835H68.5215V13.6275ZM94.9579 13.6275H98.7139V17.3835H94.9579V13.6275ZM78.7301 9.7752L81.7638 12.9534H86.0495V18.0095H81.7638L78.7301 21.2358V24.7029L82.5342 28.5552H84.5086L88.3609 24.7029V20.4172H93.417V25.4733H89.1313L85.279 29.3257V32.1186H81.6675V29.3257L77.8633 25.4733H73.6258V20.4172H77.9115L80.9452 17.1427V13.772L77.8633 10.5457H73.5776V5.48951H78.6338V9.7752H78.7301ZM84.0752 6.35628L88.6016 2.50397V1.39644H90.4796V3.27444H89.4202L84.9419 7.07858V8.37874L90.5278 14.0609H92.5502V16.902H89.7573V14.8795L84.1715 9.19735H82.149V6.35628H84.0752ZM88.3609 5.53767H93.417V10.5938H88.3609V5.53767ZM74.7815 14.109H77.6226V16.9501H74.7815V14.109ZM82.1009 21.7655H84.9419V24.6066H82.1009V21.7655ZM76.6595 27.6403H78.5375V29.5183H76.6595V27.6403ZM88.0719 27.6403H89.9499V29.5183H88.0719V27.6403ZM69.629 8.76397H71.507V10.642H69.629V8.76397ZM69.629 20.369H71.507V22.247H69.629V20.369ZM95.8247 20.369H97.7027V22.247H95.8247V20.369ZM95.8247 9.00474H97.7027V10.8827H95.8247V9.00474ZM77.1892 1.4446H79.0672V3.32259H77.1892V1.4446Z" fill="#605BF0"></path><path d="M4.52646 0.0483398V40.7865H0V0.0483398H4.52646Z" fill="#605BF0"></path><path d="M19.0208 40.7381H14.9277V0H20.7062L30.1443 29.422V0H34.1411V40.7381H29.422L19.0208 7.80091V40.7381Z" fill="#605BF0"></path><path d="M48.636 40.7381H44.543V0H50.3214L59.7596 29.422V0H63.7563V40.7381H59.0373L48.636 7.80091V40.7381Z" fill="#605BF0"></path><path d="M106.034 0.0483398L112.68 35.4896L119.277 0.0483398H123.466L115.858 40.7865H109.164L101.508 0.0483398H106.034Z" fill="#605BF0"></path><path d="M147.254 18.0579V22.151H137.286V36.6452H149.517V40.7865H132.76V0.0483398H149.517V4.18957H137.286V18.106H147.254V18.0579Z" fill="#605BF0"></path><path d="M163.531 40.7381H159.438V0H165.216L174.654 29.422V0H178.651V40.7381H173.932L163.531 7.80091V40.7381Z" fill="#605BF0"></path><path d="M195.071 40.7381V4.14122H187.559V0H207.109V4.14122H199.597V40.7381H195.071Z" fill="#605BF0"></path><path d="M220.589 0.0483398V40.7865H216.062V0.0483398H220.589Z" fill="#605BF0"></path><path d="M241.198 23.162L234.409 40.7381H230.123L238.309 19.7431L230.653 0H235.372L241.632 16.276L247.988 0H252.226L244.617 19.7431L252.755 40.7381H247.988L241.198 23.162Z" fill="#605BF0"></path><path d="M42.809 49.9846V50.3217H41.4607V49.8883C41.4607 48.7326 41.0273 48.0585 39.968 48.0585C38.9086 48.0585 38.4752 48.7326 38.4752 49.8883C38.4752 52.7775 42.809 53.0665 42.809 56.678C42.809 58.6523 41.846 59.9043 39.8717 59.9043C37.8973 59.9043 36.9824 58.6523 36.9824 56.678V56.0038H38.3307V56.8225C38.3307 57.9781 38.8123 58.6523 39.8235 58.6523C40.8347 58.6523 41.3163 57.9781 41.3163 56.8225C41.3163 53.9332 36.9824 53.6443 36.9824 50.0328C36.9824 48.0584 37.8973 46.8065 39.8235 46.8065C41.8941 46.7583 42.809 48.0585 42.809 49.9846Z" fill="#605BF0"></path><path d="M59.1289 50.0329C59.1289 48.0586 60.092 46.8066 62.0663 46.8066C64.0406 46.8066 65.0518 48.0586 65.0518 50.0329V56.7263C65.0518 58.7006 64.0888 59.9526 62.0663 59.9526C60.092 59.9526 59.1289 58.6525 59.1289 56.7263V50.0329ZM60.5254 56.7745C60.5254 57.9783 61.0069 58.6525 62.0663 58.6525C63.1257 58.6525 63.6072 57.9783 63.6072 56.7745V49.9366C63.6072 48.7809 63.1257 48.0586 62.0663 48.0586C61.0551 48.0586 60.5254 48.7809 60.5254 49.9366V56.7745Z" fill="#605BF0"></path><path d="M81.5723 59.8076V46.9023H83.0169V58.5074H86.7247V59.8076H81.5723Z" fill="#605BF0"></path><path d="M104.247 56.7739C104.247 57.9296 104.729 58.6519 105.74 58.6519C106.751 58.6519 107.233 57.9296 107.233 56.7739V46.9023H108.581V56.7257C108.581 58.7 107.666 60.0002 105.692 60.0002C103.718 60.0002 102.803 58.7 102.803 56.7257V46.9023H104.247V56.7739Z" fill="#605BF0"></path><path d="M127.078 59.8076V48.2025H124.719V46.9023H130.931V48.2025H128.571V59.8076H127.078Z" fill="#605BF0"></path><path d="M148.456 46.9023V59.8076H147.012V46.9023H148.456Z" fill="#605BF0"></path><path d="M164.979 50.0329C164.979 48.0586 165.942 46.8066 167.916 46.8066C169.89 46.8066 170.901 48.0586 170.901 50.0329V56.7263C170.901 58.7006 169.938 59.9526 167.916 59.9526C165.942 59.9526 164.979 58.6525 164.979 56.7263V50.0329ZM166.375 56.7745C166.375 57.9783 166.857 58.6525 167.916 58.6525C168.975 58.6525 169.457 57.9783 169.457 56.7745V49.9366C169.457 48.7809 168.975 48.0586 167.916 48.0586C166.905 48.0586 166.375 48.7809 166.375 49.9366V56.7745Z" fill="#605BF0"></path><path d="M188.667 59.8076H187.367V46.9023H189.197L192.183 56.2442V46.9023H193.435V59.8076H191.942L188.619 49.3582V59.8076H188.667Z" fill="#605BF0"></path><path d="M215.686 49.9846V50.3217H214.338V49.8883C214.338 48.7326 213.904 48.0585 212.845 48.0585C211.786 48.0585 211.352 48.7326 211.352 49.8883C211.352 52.7775 215.686 53.0665 215.686 56.678C215.686 58.6523 214.723 59.9043 212.749 59.9043C210.774 59.9043 209.859 58.6523 209.859 56.678V56.0038H211.208V56.8225C211.208 57.9781 211.689 58.6523 212.7 58.6523C213.712 58.6523 214.193 57.9781 214.193 56.8225C214.193 53.9332 209.859 53.6443 209.859 50.0328C209.859 48.0584 210.774 46.8065 212.7 46.8065C214.771 46.7583 215.686 48.0585 215.686 49.9846Z" fill="#605BF0"></path></svg>